<?xml version="1.0" standalone="no"?>
<!DOCTYPE svg PUBLIC "-//W3C//DTD SVG 20010904//EN"
 "http://www.w3.org/TR/2001/REC-SVG-20010904/DTD/svg10.dtd">
<svg version="1.0" xmlns="http://www.w3.org/2000/svg"
 width="512.000000pt" height="512.000000pt" viewBox="0 0 512.000000 512.000000"
 preserveAspectRatio="xMidYMid meet">

<g transform="translate(0.000000,512.000000) scale(0.100000,-0.100000)"
fill="#000000" stroke="none">
<path d="M1425 4855 c-55 -54 -23 -106 85 -136 41 -11 76 -22 78 -24 2 -1 -35
-24 -82 -49 -661 -361 -1094 -1002 -1176 -1744 -16 -145 -8 -463 15 -592 87
-484 292 -886 625 -1221 164 -165 333 -292 528 -396 65 -35 99 -61 124 -93 21
-28 55 -56 90 -74 l56 -28 307 0 306 0 54 27 c115 56 145 125 145 332 l0 143
-505 0 -505 0 0 -90 0 -89 -81 47 c-186 109 -399 290 -538 460 -235 287 -382
605 -452 977 -26 138 -37 439 -20 581 80 692 469 1280 1069 1613 50 28 97 51
102 51 6 0 -8 -37 -31 -82 -40 -76 -41 -83 -28 -107 8 -14 27 -32 42 -41 50
-28 71 -4 179 195 54 99 98 188 98 197 0 9 -10 28 -22 42 -19 20 -60 35 -211
76 -103 27 -196 50 -208 50 -11 0 -31 -11 -44 -25z"/>
<path d="M3258 4722 c-21 -32 -38 -61 -38 -64 0 -3 35 -18 78 -33 95 -34 263
-117 370 -183 407 -253 727 -659 876 -1112 83 -254 111 -454 103 -730 -7 -247
-45 -449 -124 -660 -178 -479 -521 -872 -976 -1120 -43 -23 -80 -40 -83 -38
-2 3 14 39 36 81 31 57 39 82 34 101 -13 55 -84 74 -121 33 -18 -19 -96 -157
-177 -313 -30 -58 -28 -96 8 -119 11 -8 107 -37 213 -65 208 -55 228 -55 252
-3 27 59 -3 93 -103 118 -42 11 -76 21 -76 25 0 3 35 23 78 45 108 55 289 178
403 274 428 358 716 900 778 1463 16 140 13 388 -4 524 -105 800 -622 1480
-1359 1789 -60 25 -113 45 -119 45 -7 0 -29 -26 -49 -58z"/>
</g>
</svg>
