<?xml version="1.0" standalone="no"?>
<!DOCTYPE svg PUBLIC "-//W3C//DTD SVG 20010904//EN"
 "http://www.w3.org/TR/2001/REC-SVG-20010904/DTD/svg10.dtd">
<svg version="1.0" xmlns="http://www.w3.org/2000/svg"
 width="512.000000pt" height="512.000000pt" viewBox="0 0 512.000000 512.000000"
 preserveAspectRatio="xMidYMid meet">

<g transform="translate(0.000000,512.000000) scale(0.100000,-0.100000)"
fill="#000000" stroke="none">
<path d="M3152 4069 c-42 -6 -226 -93 -918 -438 l-866 -431 -377 0 c-228 0
-401 -4 -437 -11 -190 -35 -348 -193 -383 -383 -15 -83 -15 -2169 0 -2252 35
-190 193 -348 383 -383 41 -8 599 -11 1821 -11 1938 0 1813 -4 1936 61 70 38
157 126 193 197 51 101 56 141 56 473 l0 306 79 6 c138 9 235 72 290 187 26
54 26 57 26 290 0 233 0 236 -26 290 -55 115 -152 178 -290 187 l-79 6 0 306
c0 338 -5 376 -61 482 -38 70 -126 157 -197 193 -101 51 -141 56 -473 56
l-307 0 -4 313 c-5 353 -8 370 -80 452 -71 80 -175 118 -286 104z m863 -2168
c88 -40 145 -126 145 -221 0 -213 -258 -320 -409 -169 -117 116 -86 310 61
383 63 32 143 35 203 7z"/>
</g>
</svg>
